<?xml version="1.0" encoding="utf-8"?>
<!-- Generator: Adobe Illustrator 22.0.1, SVG Export Plug-In . SVG Version: 6.00 Build 0)  -->
<svg version="1.1" id="Слой_1" xmlns="http://www.w3.org/2000/svg" xmlns:xlink="http://www.w3.org/1999/xlink" x="0px" y="0px"
	 viewBox="0 0 2452.9 630.5" style="enable-background:new 0 0 2452.9 630.5;" xml:space="preserve">
<style type="text/css">
	.st0{clip-path:url(#SVGID_2_);}
	.st1{fill:#FFFFFF;}
</style>
<title>Ресурс 2</title>
<g id="Слой_2_1_">
	<g id="Слой_1-2">
		<g>
			<g>
				<defs>
					<rect id="SVGID_1_" x="-317.8" y="-320.1" width="3088.5" height="1270.7"/>
				</defs>
				<clipPath id="SVGID_2_">
					<use xlink:href="#SVGID_1_"  style="overflow:visible;"/>
				</clipPath>
				<g class="st0">
					<path class="st1" d="M566.8,552.2c-54.2,0-92.3-40.4-92.3-98.9c0-59.1,38.7-99.5,92.6-99.5c43.4,0,75.3,25.6,85.5,67.6l-39,3.3
						c-6.6-20.1-23.9-32.7-46.2-32.7c-25.6,0-44.3,16.5-49.8,43.2h72V469H517c5.2,27.8,24.2,45.1,50.3,45.1
						c22.3,0,39.6-12.7,46.2-32.7l39,3.3C642.4,526.6,610.5,552.2,566.8,552.2"/>
					<path class="st1" d="M677.1,356.8H756c35.7,0,61,22,61,52.2c0.2,15.8-7.1,30.7-19.8,40.1c18.1,9.1,29.4,25.8,29.4,45.9
						c0,31.6-27.2,54.2-64.9,54.2H677L677.1,356.8L677.1,356.8z M717.2,390.3v45.3h31.6c15.7,0,25.8-9.3,25.8-22.8
						c0-13.2-10.7-22.5-26.4-22.5H717.2z M717.2,467v48.6h38.2c17.3,0,28.9-9.9,28.9-24.5c0-14.3-11.8-24.2-29.1-24.2h-38V467z"/>
					<path class="st1" d="M852.3,356.8H930c38.2,0,65.4,25.3,65.4,60.7c0,35.7-27.2,61-64.9,61h-38.2v70.6h-40.1L852.3,356.8z
						 M892.4,390.3V445h31.9c17.3,0,28.9-11.3,28.9-27.5s-11.8-27.2-29.1-27.2H892.4z"/>
					<path class="st1" d="M1106.8,353.7c54.2,0,92.6,41.2,92.6,99.2s-38.5,99.2-92.6,99.2s-92.6-41.2-92.6-99.2
						S1052.6,353.7,1106.8,353.7 M1106.8,514c30.2,0,50.3-24.5,50.3-61s-20.1-61-50.3-61c-30,0-50.3,24.5-50.3,61
						S1076.8,514,1106.8,514"/>
					<path class="st1" d="M1225.1,356.8h127.8v33.5h-87.7v39h39.3c38.2,0,65.4,25,65.4,59.9s-27.2,59.9-64.9,59.9h-80L1225.1,356.8z
						 M1265.2,462.9v52.8h33.5c17.3,0,28.8-10.7,28.8-26.4s-11.8-26.4-29.1-26.4L1265.2,462.9L1265.2,462.9z"/>
					<path class="st1" d="M1495.4,356.8l74.5,192.4H1527l-14.3-39h-78l-14.3,39h-42.9l74.5-192.4L1495.4,356.8L1495.4,356.8z
						 M1500.4,476.3l-26.7-72.8l-26.7,72.8H1500.4z"/>
					<path class="st1" d="M1680.4,474.4c-12.9,5.2-28,8-44,8c-45.1,0-72.6-23.9-72.6-62.1v-63.5h40.1v55.8
						c0,22.3,15.1,35.2,42.9,35.2c11.5,0.1,23-2.3,33.5-6.9v-84.1h40.1v192.4h-40.1L1680.4,474.4z"/>
					<polygon class="st1" points="1754.9,356.8 1887.1,356.8 1887.1,390.3 1795,390.3 1795,434.5 1877.7,434.5 1877.7,468.1 
						1795,468.1 1795,515.6 1888.4,515.6 1888.4,549.1 1754.9,549.1 					"/>
					<polygon class="st1" points="1916.2,356.8 1956.3,356.8 1956.3,434.8 2039.6,434.8 2039.6,356.8 2079.7,356.8 2079.7,549.1 
						2039.6,549.1 2039.6,468.3 1956.3,468.3 1956.3,549.1 1916.2,549.1 					"/>
					<polygon class="st1" points="2114,356.8 2154.1,356.8 2154.1,434.8 2237.4,434.8 2237.4,356.8 2277.5,356.8 2277.5,549.1 
						2237.4,549.1 2237.4,468.3 2154.1,468.3 2154.1,549.1 2114,549.1 					"/>
					<path class="st1" d="M2412.8,549.1v-70.6h-34.9l-33.3,70.6h-44.8l39.3-77.5c-20.6-9.9-33.8-29.4-33.8-54.1
						c0-35.5,27.5-60.7,66.2-60.7h81.4v192.4L2412.8,549.1L2412.8,549.1z M2347.7,417.5c0,16.2,12.1,27.5,29.4,27.5h35.7v-54.7
						h-35.2C2360,390.3,2347.6,401.3,2347.7,417.5"/>
					<path class="st1" d="M567.2,276.8c-54.5,0-93-40.5-93-99.3c0-59.3,39-99.8,93.3-99.8c43.7,0,75.8,25.6,86.1,67.8l-39.3,3.3
						c-6.7-20.1-23.8-32.8-46.2-32.8c-30.2,0-51.2,24.3-51.2,61.2s21,61.2,51.2,61.2c22.4,0,39.6-12.7,46.2-32.8l39.3,3.3
						C643.3,251.1,611.2,276.8,567.2,276.8"/>
					<path class="st1" d="M714,276.2c-11.1,0.1-21.9-2.8-31.5-8.3l6.4-35.6c8.9,5.2,17.4,8,24.6,8c9.7,0,18-5.5,23.6-15.7L659,80.7
						h45.1L756.4,183l45.4-102.3H845l-72.2,154.4C760.5,261.6,739.8,276.2,714,276.2"/>
					<path class="st1" d="M937.3,276.8c-54.5,0-93-40.5-93-99.3c0-59.3,39-99.8,93.3-99.8c43.7,0,75.8,25.6,86.1,67.8l-39.3,3.3
						c-6.7-20.1-23.8-32.8-46.2-32.8c-30.2,0-51.2,24.3-51.2,61.2s21,61.2,51.2,61.2c22.4,0,39.6-12.7,46.2-32.8l39.3,3.3
						C1013.5,251.1,981.3,276.8,937.3,276.8"/>
					<polygon class="st1" points="1053.3,80.7 1216.9,80.7 1216.9,273.7 1176.5,273.7 1176.5,114.3 1093.7,114.3 1093.7,273.7 
						1053.3,273.7 					"/>
					<path class="st1" d="M1500.8,80.7v193h-40.4V114.3h-62.8v19.9c0,103.7-12.4,142-45.9,142c-7.5,0-18.8-1.9-28.3-5l2.8-34.7
						c3.9,1.2,7.9,1.8,11.9,1.9c16.3,0,21.3-27,21.3-116.1V80.7H1500.8z"/>
					<rect x="1252.6" y="80.7" class="st1" width="40.4" height="193"/>
					<path class="st1" d="M1574.7,185.2v54.9h33.6c17.4,0,29.1-11.3,29.1-27.6s-11.9-27.3-29.6-27.3H1574.7z M1534.3,80.7h40.4v70.9
						h39.3c38.5,0,65.9,25.4,65.9,60.9c0,35.9-27.4,61.2-65.3,61.2h-80.3V80.7z"/>
					<polygon class="st1" points="1707.2,80.7 1747.6,80.7 1747.6,159 1831.5,159 1831.5,80.7 1871.9,80.7 1871.9,273.7 
						1831.5,273.7 1831.5,192.6 1747.6,192.6 1747.6,273.7 1707.2,273.7 					"/>
					<polygon class="st1" points="1905.5,80.7 2038.6,80.7 2038.6,114.3 1945.9,114.3 1945.9,158.7 2029.2,158.7 2029.2,192.4 
						1945.9,192.4 1945.9,240.1 2040,240.1 2040,273.7 1905.5,273.7 					"/>
					<path class="st1" d="M316.4,315.3v315.3C142.8,630.5,0,488.2,0,315.3S142.9,0,316.4,0V315.3z"/>
				</g>
			</g>
		</g>
	</g>
</g>
</svg>
